<mxfile host="app.diagrams.net" agent="Mozilla/5.0 (Windows NT 10.0; Win64; x64) AppleWebKit/537.36 (KHTML, like Gecko) Chrome/137.0.0.0 Safari/537.36 OPR/121.0.0.0" version="28.2.3">
  <diagram name="PÃ¡gina-1" id="eiL05JNtcbeAJhHDpGZt">
    <mxGraphModel grid="1" page="1" gridSize="10" guides="1" tooltips="1" connect="1" arrows="1" fold="1" pageScale="1" pageWidth="827" pageHeight="1169" math="0" shadow="0">
      <root>
        <mxCell id="0" />
        <mxCell id="1" parent="0" />
        <mxCell id="r08yA3IkgszaSVFF9PFJ-1" value="&lt;font style=&quot;font-size: 24px;&quot;&gt;DER - ESCOLA&lt;/font&gt;" style="text;html=1;align=center;verticalAlign=middle;resizable=0;points=[];autosize=1;strokeColor=default;fillColor=default;" vertex="1" parent="1">
          <mxGeometry x="405" y="-230" width="190" height="40" as="geometry" />
        </mxCell>
        <mxCell id="IfuQvq8SC6deGYQw8nbb-8" style="edgeStyle=orthogonalEdgeStyle;rounded=0;orthogonalLoop=1;jettySize=auto;html=1;entryX=0.5;entryY=1;entryDx=0;entryDy=0;" edge="1" parent="1" source="r08yA3IkgszaSVFF9PFJ-3" target="IfuQvq8SC6deGYQw8nbb-5">
          <mxGeometry relative="1" as="geometry" />
        </mxCell>
        <mxCell id="IfuQvq8SC6deGYQw8nbb-9" style="edgeStyle=orthogonalEdgeStyle;rounded=0;orthogonalLoop=1;jettySize=auto;html=1;entryX=0.5;entryY=1;entryDx=0;entryDy=0;" edge="1" parent="1" source="r08yA3IkgszaSVFF9PFJ-3" target="IfuQvq8SC6deGYQw8nbb-4">
          <mxGeometry relative="1" as="geometry" />
        </mxCell>
        <mxCell id="IfuQvq8SC6deGYQw8nbb-11" style="edgeStyle=orthogonalEdgeStyle;rounded=0;orthogonalLoop=1;jettySize=auto;html=1;entryX=0.5;entryY=0;entryDx=0;entryDy=0;" edge="1" parent="1" source="r08yA3IkgszaSVFF9PFJ-3" target="IfuQvq8SC6deGYQw8nbb-10">
          <mxGeometry relative="1" as="geometry" />
        </mxCell>
        <mxCell id="r08yA3IkgszaSVFF9PFJ-3" value="ESCOLA" style="rounded=0;whiteSpace=wrap;html=1;fillColor=#f8cecc;strokeColor=#b85450;" vertex="1" parent="1">
          <mxGeometry x="60" y="260" width="120" height="60" as="geometry" />
        </mxCell>
        <mxCell id="IfuQvq8SC6deGYQw8nbb-17" value="" style="edgeStyle=orthogonalEdgeStyle;rounded=0;orthogonalLoop=1;jettySize=auto;html=1;" edge="1" parent="1" source="r08yA3IkgszaSVFF9PFJ-4" target="IfuQvq8SC6deGYQw8nbb-16">
          <mxGeometry relative="1" as="geometry">
            <Array as="points">
              <mxPoint x="640" y="290" />
            </Array>
          </mxGeometry>
        </mxCell>
        <mxCell id="IfuQvq8SC6deGYQw8nbb-31" style="edgeStyle=orthogonalEdgeStyle;rounded=0;orthogonalLoop=1;jettySize=auto;html=1;entryX=0.5;entryY=1;entryDx=0;entryDy=0;" edge="1" parent="1" source="r08yA3IkgszaSVFF9PFJ-4" target="IfuQvq8SC6deGYQw8nbb-23">
          <mxGeometry relative="1" as="geometry">
            <Array as="points">
              <mxPoint x="500" y="220" />
              <mxPoint x="560" y="220" />
            </Array>
          </mxGeometry>
        </mxCell>
        <mxCell id="IfuQvq8SC6deGYQw8nbb-32" style="edgeStyle=orthogonalEdgeStyle;rounded=0;orthogonalLoop=1;jettySize=auto;html=1;entryX=0.5;entryY=1;entryDx=0;entryDy=0;" edge="1" parent="1" source="r08yA3IkgszaSVFF9PFJ-4" target="IfuQvq8SC6deGYQw8nbb-21">
          <mxGeometry relative="1" as="geometry" />
        </mxCell>
        <mxCell id="IfuQvq8SC6deGYQw8nbb-34" style="edgeStyle=orthogonalEdgeStyle;rounded=0;orthogonalLoop=1;jettySize=auto;html=1;" edge="1" parent="1" source="r08yA3IkgszaSVFF9PFJ-4" target="IfuQvq8SC6deGYQw8nbb-25">
          <mxGeometry relative="1" as="geometry" />
        </mxCell>
        <mxCell id="IfuQvq8SC6deGYQw8nbb-38" style="edgeStyle=orthogonalEdgeStyle;rounded=0;orthogonalLoop=1;jettySize=auto;html=1;" edge="1" parent="1" source="r08yA3IkgszaSVFF9PFJ-4" target="IfuQvq8SC6deGYQw8nbb-29">
          <mxGeometry relative="1" as="geometry" />
        </mxCell>
        <mxCell id="IfuQvq8SC6deGYQw8nbb-40" style="edgeStyle=orthogonalEdgeStyle;rounded=0;orthogonalLoop=1;jettySize=auto;html=1;entryX=0.5;entryY=1;entryDx=0;entryDy=0;" edge="1" parent="1" source="r08yA3IkgszaSVFF9PFJ-4" target="IfuQvq8SC6deGYQw8nbb-15">
          <mxGeometry relative="1" as="geometry" />
        </mxCell>
        <mxCell id="IfuQvq8SC6deGYQw8nbb-42" style="edgeStyle=orthogonalEdgeStyle;rounded=0;orthogonalLoop=1;jettySize=auto;html=1;entryX=0.5;entryY=1;entryDx=0;entryDy=0;" edge="1" parent="1" source="r08yA3IkgszaSVFF9PFJ-4" target="IfuQvq8SC6deGYQw8nbb-27">
          <mxGeometry relative="1" as="geometry" />
        </mxCell>
        <mxCell id="r08yA3IkgszaSVFF9PFJ-4" value="ALUNO" style="rounded=0;whiteSpace=wrap;html=1;fillColor=#f8cecc;strokeColor=#b85450;" vertex="1" parent="1">
          <mxGeometry x="440" y="260" width="120" height="60" as="geometry" />
        </mxCell>
        <mxCell id="IfuQvq8SC6deGYQw8nbb-14" style="edgeStyle=orthogonalEdgeStyle;rounded=0;orthogonalLoop=1;jettySize=auto;html=1;entryX=1;entryY=0.5;entryDx=0;entryDy=0;" edge="1" parent="1" source="r08yA3IkgszaSVFF9PFJ-5" target="r08yA3IkgszaSVFF9PFJ-6">
          <mxGeometry relative="1" as="geometry" />
        </mxCell>
        <mxCell id="IfuQvq8SC6deGYQw8nbb-44" style="edgeStyle=orthogonalEdgeStyle;rounded=0;orthogonalLoop=1;jettySize=auto;html=1;" edge="1" parent="1" source="r08yA3IkgszaSVFF9PFJ-5" target="IfuQvq8SC6deGYQw8nbb-43">
          <mxGeometry relative="1" as="geometry" />
        </mxCell>
        <mxCell id="IfuQvq8SC6deGYQw8nbb-47" style="edgeStyle=orthogonalEdgeStyle;rounded=0;orthogonalLoop=1;jettySize=auto;html=1;" edge="1" parent="1" source="r08yA3IkgszaSVFF9PFJ-5" target="IfuQvq8SC6deGYQw8nbb-46">
          <mxGeometry relative="1" as="geometry" />
        </mxCell>
        <mxCell id="IfuQvq8SC6deGYQw8nbb-49" style="edgeStyle=orthogonalEdgeStyle;rounded=0;orthogonalLoop=1;jettySize=auto;html=1;entryX=0.5;entryY=0;entryDx=0;entryDy=0;" edge="1" parent="1" source="r08yA3IkgszaSVFF9PFJ-5" target="IfuQvq8SC6deGYQw8nbb-48">
          <mxGeometry relative="1" as="geometry" />
        </mxCell>
        <mxCell id="IfuQvq8SC6deGYQw8nbb-51" style="edgeStyle=orthogonalEdgeStyle;rounded=0;orthogonalLoop=1;jettySize=auto;html=1;entryX=0.5;entryY=1;entryDx=0;entryDy=0;" edge="1" parent="1" source="r08yA3IkgszaSVFF9PFJ-5" target="IfuQvq8SC6deGYQw8nbb-50">
          <mxGeometry relative="1" as="geometry" />
        </mxCell>
        <mxCell id="r08yA3IkgszaSVFF9PFJ-5" value="TURMA" style="rounded=0;whiteSpace=wrap;html=1;fillColor=#f8cecc;strokeColor=#b85450;" vertex="1" parent="1">
          <mxGeometry x="580" y="480" width="120" height="60" as="geometry" />
        </mxCell>
        <mxCell id="IfuQvq8SC6deGYQw8nbb-58" style="edgeStyle=orthogonalEdgeStyle;rounded=0;orthogonalLoop=1;jettySize=auto;html=1;entryX=0.5;entryY=0;entryDx=0;entryDy=0;" edge="1" parent="1" source="r08yA3IkgszaSVFF9PFJ-6" target="IfuQvq8SC6deGYQw8nbb-52">
          <mxGeometry relative="1" as="geometry" />
        </mxCell>
        <mxCell id="IfuQvq8SC6deGYQw8nbb-59" style="edgeStyle=orthogonalEdgeStyle;rounded=0;orthogonalLoop=1;jettySize=auto;html=1;entryX=0.5;entryY=0;entryDx=0;entryDy=0;" edge="1" parent="1" source="r08yA3IkgszaSVFF9PFJ-6" target="IfuQvq8SC6deGYQw8nbb-54">
          <mxGeometry relative="1" as="geometry" />
        </mxCell>
        <mxCell id="IfuQvq8SC6deGYQw8nbb-60" style="edgeStyle=orthogonalEdgeStyle;rounded=0;orthogonalLoop=1;jettySize=auto;html=1;entryX=1;entryY=0.5;entryDx=0;entryDy=0;" edge="1" parent="1" source="r08yA3IkgszaSVFF9PFJ-6" target="IfuQvq8SC6deGYQw8nbb-56">
          <mxGeometry relative="1" as="geometry" />
        </mxCell>
        <mxCell id="IfuQvq8SC6deGYQw8nbb-61" style="edgeStyle=orthogonalEdgeStyle;rounded=0;orthogonalLoop=1;jettySize=auto;html=1;entryX=0.5;entryY=1;entryDx=0;entryDy=0;" edge="1" parent="1" source="r08yA3IkgszaSVFF9PFJ-6" target="IfuQvq8SC6deGYQw8nbb-53">
          <mxGeometry relative="1" as="geometry" />
        </mxCell>
        <mxCell id="IfuQvq8SC6deGYQw8nbb-62" style="edgeStyle=orthogonalEdgeStyle;rounded=0;orthogonalLoop=1;jettySize=auto;html=1;entryX=1;entryY=0.5;entryDx=0;entryDy=0;" edge="1" parent="1" source="r08yA3IkgszaSVFF9PFJ-6" target="IfuQvq8SC6deGYQw8nbb-55">
          <mxGeometry relative="1" as="geometry" />
        </mxCell>
        <mxCell id="r08yA3IkgszaSVFF9PFJ-6" value="PROVA" style="rounded=0;whiteSpace=wrap;html=1;fillColor=#f8cecc;strokeColor=#b85450;" vertex="1" parent="1">
          <mxGeometry x="240" y="480" width="120" height="60" as="geometry" />
        </mxCell>
        <mxCell id="IfuQvq8SC6deGYQw8nbb-2" style="edgeStyle=orthogonalEdgeStyle;rounded=0;orthogonalLoop=1;jettySize=auto;html=1;entryX=0;entryY=0.5;entryDx=0;entryDy=0;" edge="1" parent="1" source="IfuQvq8SC6deGYQw8nbb-1" target="r08yA3IkgszaSVFF9PFJ-4">
          <mxGeometry relative="1" as="geometry" />
        </mxCell>
        <mxCell id="IfuQvq8SC6deGYQw8nbb-3" style="edgeStyle=orthogonalEdgeStyle;rounded=0;orthogonalLoop=1;jettySize=auto;html=1;entryX=1;entryY=0.5;entryDx=0;entryDy=0;" edge="1" parent="1" source="IfuQvq8SC6deGYQw8nbb-1" target="r08yA3IkgszaSVFF9PFJ-3">
          <mxGeometry relative="1" as="geometry" />
        </mxCell>
        <mxCell id="IfuQvq8SC6deGYQw8nbb-1" value="contem" style="rhombus;whiteSpace=wrap;html=1;fillColor=#e1d5e7;strokeColor=#9673a6;" vertex="1" parent="1">
          <mxGeometry x="280" y="250" width="80" height="80" as="geometry" />
        </mxCell>
        <mxCell id="IfuQvq8SC6deGYQw8nbb-4" value="NOME" style="ellipse;whiteSpace=wrap;html=1;fillColor=#dae8fc;gradientColor=#7ea6e0;strokeColor=#6c8ebf;" vertex="1" parent="1">
          <mxGeometry x="10" y="180" width="80" height="40" as="geometry" />
        </mxCell>
        <mxCell id="IfuQvq8SC6deGYQw8nbb-5" value="PERIODO" style="ellipse;whiteSpace=wrap;html=1;fillColor=#dae8fc;gradientColor=#7ea6e0;strokeColor=#6c8ebf;" vertex="1" parent="1">
          <mxGeometry x="150" y="180" width="80" height="40" as="geometry" />
        </mxCell>
        <mxCell id="IfuQvq8SC6deGYQw8nbb-10" value="ENDEREÃO" style="ellipse;whiteSpace=wrap;html=1;fillColor=#dae8fc;gradientColor=#7ea6e0;strokeColor=#6c8ebf;" vertex="1" parent="1">
          <mxGeometry x="80" y="350" width="80" height="40" as="geometry" />
        </mxCell>
        <mxCell id="IfuQvq8SC6deGYQw8nbb-15" value="&lt;span class=&quot;cf0&quot;&gt;Turma&lt;/span&gt;" style="ellipse;whiteSpace=wrap;html=1;fillColor=#dae8fc;gradientColor=#7ea6e0;strokeColor=#6c8ebf;" vertex="1" parent="1">
          <mxGeometry x="560" y="140" width="80" height="40" as="geometry" />
        </mxCell>
        <mxCell id="IfuQvq8SC6deGYQw8nbb-18" value="" style="edgeStyle=orthogonalEdgeStyle;rounded=0;orthogonalLoop=1;jettySize=auto;html=1;" edge="1" parent="1" source="IfuQvq8SC6deGYQw8nbb-16" target="r08yA3IkgszaSVFF9PFJ-5">
          <mxGeometry relative="1" as="geometry" />
        </mxCell>
        <mxCell id="IfuQvq8SC6deGYQw8nbb-16" value="contem" style="rhombus;whiteSpace=wrap;html=1;fillColor=#e1d5e7;strokeColor=#9673a6;" vertex="1" parent="1">
          <mxGeometry x="600" y="320" width="80" height="80" as="geometry" />
        </mxCell>
        <mxCell id="IfuQvq8SC6deGYQw8nbb-19" value="contem" style="rhombus;whiteSpace=wrap;html=1;direction=south;fillColor=#e1d5e7;strokeColor=#9673a6;" vertex="1" parent="1">
          <mxGeometry x="430" y="470" width="80" height="80" as="geometry" />
        </mxCell>
        <mxCell id="IfuQvq8SC6deGYQw8nbb-21" value="&lt;span class=&quot;cf0&quot;&gt;Nome&lt;/span&gt;" style="ellipse;whiteSpace=wrap;html=1;fillColor=#dae8fc;gradientColor=#7ea6e0;strokeColor=#6c8ebf;" vertex="1" parent="1">
          <mxGeometry x="360" y="130" width="80" height="40" as="geometry" />
        </mxCell>
        <mxCell id="IfuQvq8SC6deGYQw8nbb-23" value="&lt;span class=&quot;cf0&quot;&gt;DataNascimento&lt;/span&gt;" style="ellipse;whiteSpace=wrap;html=1;fillColor=#dae8fc;strokeColor=#6c8ebf;gradientColor=#7ea6e0;" vertex="1" parent="1">
          <mxGeometry x="620" y="80" width="100" height="40" as="geometry" />
        </mxCell>
        <mxCell id="IfuQvq8SC6deGYQw8nbb-25" value="&lt;span class=&quot;cf0&quot;&gt;Matricula(RA)&lt;/span&gt;" style="ellipse;whiteSpace=wrap;html=1;fillColor=#dae8fc;gradientColor=#7ea6e0;strokeColor=#6c8ebf;" vertex="1" parent="1">
          <mxGeometry x="450" y="-40" width="100" height="40" as="geometry" />
        </mxCell>
        <mxCell id="IfuQvq8SC6deGYQw8nbb-27" value="&lt;span class=&quot;cf0&quot;&gt;CPF&lt;/span&gt;" style="ellipse;whiteSpace=wrap;html=1;fillColor=#dae8fc;gradientColor=#7ea6e0;strokeColor=#6c8ebf;" vertex="1" parent="1">
          <mxGeometry x="530" y="-80" width="80" height="40" as="geometry" />
        </mxCell>
        <mxCell id="IfuQvq8SC6deGYQw8nbb-29" value="&lt;span class=&quot;cf0&quot;&gt;endereÃ§o&lt;/span&gt;" style="ellipse;whiteSpace=wrap;html=1;fillColor=#dae8fc;gradientColor=#7ea6e0;strokeColor=#6c8ebf;" vertex="1" parent="1">
          <mxGeometry x="400" y="60" width="80" height="40" as="geometry" />
        </mxCell>
        <mxCell id="IfuQvq8SC6deGYQw8nbb-43" value="&lt;span class=&quot;cf0&quot;&gt;NumeroSala&lt;/span&gt;" style="ellipse;whiteSpace=wrap;html=1;fillColor=#dae8fc;gradientColor=#7ea6e0;strokeColor=#6c8ebf;" vertex="1" parent="1">
          <mxGeometry x="980" y="490" width="80" height="40" as="geometry" />
        </mxCell>
        <mxCell id="IfuQvq8SC6deGYQw8nbb-46" value="&lt;span class=&quot;cf0&quot;&gt;Serie&lt;/span&gt;" style="ellipse;whiteSpace=wrap;html=1;fillColor=#dae8fc;gradientColor=#7ea6e0;strokeColor=#6c8ebf;" vertex="1" parent="1">
          <mxGeometry x="780" y="660" width="80" height="40" as="geometry" />
        </mxCell>
        <mxCell id="IfuQvq8SC6deGYQw8nbb-48" value="&lt;span class=&quot;cf0&quot;&gt;perÃ­odo&lt;/span&gt;" style="ellipse;whiteSpace=wrap;html=1;fillColor=#dae8fc;gradientColor=#7ea6e0;strokeColor=#6c8ebf;" vertex="1" parent="1">
          <mxGeometry x="600" y="660" width="80" height="40" as="geometry" />
        </mxCell>
        <mxCell id="IfuQvq8SC6deGYQw8nbb-50" value="&lt;span class=&quot;cf0&quot;&gt;NomeTurma&lt;/span&gt;" style="ellipse;whiteSpace=wrap;html=1;fillColor=#dae8fc;gradientColor=#7ea6e0;strokeColor=#6c8ebf;" vertex="1" parent="1">
          <mxGeometry x="780" y="360" width="80" height="40" as="geometry" />
        </mxCell>
        <mxCell id="IfuQvq8SC6deGYQw8nbb-52" value="&lt;span class=&quot;cf0&quot;&gt;Nota&lt;/span&gt;" style="ellipse;whiteSpace=wrap;html=1;fillColor=#dae8fc;gradientColor=#7ea6e0;strokeColor=#6c8ebf;" vertex="1" parent="1">
          <mxGeometry x="180" y="620" width="80" height="40" as="geometry" />
        </mxCell>
        <mxCell id="IfuQvq8SC6deGYQw8nbb-53" value="&lt;span class=&quot;cf0&quot;&gt;NomeProfessor&lt;/span&gt;" style="ellipse;whiteSpace=wrap;html=1;fillColor=#dae8fc;gradientColor=#7ea6e0;strokeColor=#6c8ebf;" vertex="1" parent="1">
          <mxGeometry x="250" y="380" width="100" height="40" as="geometry" />
        </mxCell>
        <mxCell id="IfuQvq8SC6deGYQw8nbb-54" value="&lt;span class=&quot;cf0&quot;&gt;Materia&lt;/span&gt;" style="ellipse;whiteSpace=wrap;html=1;fillColor=#dae8fc;gradientColor=#7ea6e0;strokeColor=#6c8ebf;" vertex="1" parent="1">
          <mxGeometry x="334" y="620" width="80" height="40" as="geometry" />
        </mxCell>
        <mxCell id="IfuQvq8SC6deGYQw8nbb-55" value="&lt;span class=&quot;cf0&quot;&gt;Data&lt;/span&gt;" style="ellipse;whiteSpace=wrap;html=1;fillColor=#dae8fc;gradientColor=#7ea6e0;strokeColor=#6c8ebf;" vertex="1" parent="1">
          <mxGeometry x="50" y="565" width="80" height="40" as="geometry" />
        </mxCell>
        <mxCell id="IfuQvq8SC6deGYQw8nbb-56" value="&lt;span class=&quot;cf0&quot;&gt;DuraÃ§Ã£o&lt;/span&gt;" style="ellipse;whiteSpace=wrap;html=1;fillColor=#dae8fc;gradientColor=#7ea6e0;strokeColor=#6c8ebf;" vertex="1" parent="1">
          <mxGeometry x="50" y="470" width="80" height="40" as="geometry" />
        </mxCell>
        <mxCell id="yGFI4p-_wglcrPLrTtuq-1" value="&lt;span style=&quot;font-size: 24px;&quot;&gt;CARDINALIDADE&lt;/span&gt;" style="text;html=1;align=center;verticalAlign=middle;resizable=0;points=[];autosize=1;strokeColor=default;fillColor=default;" vertex="1" parent="1">
          <mxGeometry x="295" y="950" width="220" height="40" as="geometry" />
        </mxCell>
        <mxCell id="yGFI4p-_wglcrPLrTtuq-3" value="&lt;span style=&quot;font-size: 24px;&quot;&gt;1 : 1 - um pra um&lt;/span&gt;" style="text;html=1;align=center;verticalAlign=middle;resizable=0;points=[];autosize=1;strokeColor=default;fillColor=default;" vertex="1" parent="1">
          <mxGeometry x="-55" y="1129" width="210" height="40" as="geometry" />
        </mxCell>
        <mxCell id="yGFI4p-_wglcrPLrTtuq-4" value="CPF" style="rounded=0;whiteSpace=wrap;html=1;" vertex="1" parent="1">
          <mxGeometry x="560" y="1250" width="120" height="60" as="geometry" />
        </mxCell>
        <mxCell id="yGFI4p-_wglcrPLrTtuq-26" style="edgeStyle=orthogonalEdgeStyle;rounded=0;orthogonalLoop=1;jettySize=auto;html=1;exitX=1;exitY=0.5;exitDx=0;exitDy=0;entryX=0;entryY=0.5;entryDx=0;entryDy=0;endArrow=none;endFill=0;" edge="1" parent="1" source="yGFI4p-_wglcrPLrTtuq-6" target="yGFI4p-_wglcrPLrTtuq-4">
          <mxGeometry relative="1" as="geometry" />
        </mxCell>
        <mxCell id="yGFI4p-_wglcrPLrTtuq-6" value="pessoal" style="rounded=0;whiteSpace=wrap;html=1;" vertex="1" parent="1">
          <mxGeometry x="130" y="1250" width="120" height="60" as="geometry" />
        </mxCell>
        <mxCell id="yGFI4p-_wglcrPLrTtuq-5" value="tem" style="rhombus;whiteSpace=wrap;html=1;" vertex="1" parent="1">
          <mxGeometry x="360" y="1240" width="80" height="80" as="geometry" />
        </mxCell>
        <mxCell id="yGFI4p-_wglcrPLrTtuq-14" value="cada pessoa tem um CPF" style="text;html=1;align=center;verticalAlign=middle;resizable=0;points=[];autosize=1;strokeColor=none;fillColor=none;" vertex="1" parent="1">
          <mxGeometry x="310" y="1200" width="160" height="30" as="geometry" />
        </mxCell>
        <mxCell id="yGFI4p-_wglcrPLrTtuq-15" value="" style="edgeStyle=none;orthogonalLoop=1;jettySize=auto;html=1;rounded=0;exitX=0.125;exitY=1;exitDx=0;exitDy=0;exitPerimeter=0;" edge="1" parent="1" source="yGFI4p-_wglcrPLrTtuq-14">
          <mxGeometry width="100" relative="1" as="geometry">
            <mxPoint x="340" y="1230" as="sourcePoint" />
            <mxPoint x="440" y="1230" as="targetPoint" />
            <Array as="points" />
          </mxGeometry>
        </mxCell>
        <mxCell id="yGFI4p-_wglcrPLrTtuq-16" value="cada CPF pertence a uma pessoa" style="text;html=1;align=center;verticalAlign=middle;resizable=0;points=[];autosize=1;strokeColor=none;fillColor=none;" vertex="1" parent="1">
          <mxGeometry x="285" y="1340" width="210" height="30" as="geometry" />
        </mxCell>
        <mxCell id="yGFI4p-_wglcrPLrTtuq-21" value="" style="edgeStyle=none;orthogonalLoop=1;jettySize=auto;html=1;rounded=0;" edge="1" parent="1">
          <mxGeometry width="100" relative="1" as="geometry">
            <mxPoint x="440" y="1330" as="sourcePoint" />
            <mxPoint x="326" y="1330" as="targetPoint" />
            <Array as="points" />
          </mxGeometry>
        </mxCell>
        <mxCell id="yGFI4p-_wglcrPLrTtuq-27" value="1" style="text;html=1;align=center;verticalAlign=middle;resizable=0;points=[];autosize=1;strokeColor=none;fillColor=none;" vertex="1" parent="1">
          <mxGeometry x="265" y="1248" width="30" height="30" as="geometry" />
        </mxCell>
        <mxCell id="yGFI4p-_wglcrPLrTtuq-28" value="1" style="text;html=1;align=center;verticalAlign=middle;resizable=0;points=[];autosize=1;strokeColor=none;fillColor=none;" vertex="1" parent="1">
          <mxGeometry x="515" y="1248" width="30" height="30" as="geometry" />
        </mxCell>
        <mxCell id="yGFI4p-_wglcrPLrTtuq-29" value="&lt;span style=&quot;font-size: 24px;&quot;&gt;1 : N - um pra muitos&lt;/span&gt;" style="text;html=1;align=center;verticalAlign=middle;resizable=0;points=[];autosize=1;strokeColor=default;fillColor=default;" vertex="1" parent="1">
          <mxGeometry x="-65" y="1490" width="250" height="40" as="geometry" />
        </mxCell>
        <mxCell id="yGFI4p-_wglcrPLrTtuq-32" value="turmas" style="rounded=0;whiteSpace=wrap;html=1;" vertex="1" parent="1">
          <mxGeometry x="555" y="1620" width="120" height="60" as="geometry" />
        </mxCell>
        <mxCell id="yGFI4p-_wglcrPLrTtuq-33" style="edgeStyle=orthogonalEdgeStyle;rounded=0;orthogonalLoop=1;jettySize=auto;html=1;exitX=1;exitY=0.5;exitDx=0;exitDy=0;entryX=0;entryY=0.5;entryDx=0;entryDy=0;endArrow=none;endFill=0;" edge="1" parent="1" source="yGFI4p-_wglcrPLrTtuq-34" target="yGFI4p-_wglcrPLrTtuq-32">
          <mxGeometry relative="1" as="geometry">
            <Array as="points">
              <mxPoint x="405" y="1650" />
              <mxPoint x="405" y="1650" />
            </Array>
          </mxGeometry>
        </mxCell>
        <mxCell id="yGFI4p-_wglcrPLrTtuq-34" value="pessoal" style="rounded=0;whiteSpace=wrap;html=1;" vertex="1" parent="1">
          <mxGeometry x="125" y="1620" width="120" height="60" as="geometry" />
        </mxCell>
        <mxCell id="yGFI4p-_wglcrPLrTtuq-35" value="leciona" style="rhombus;whiteSpace=wrap;html=1;" vertex="1" parent="1">
          <mxGeometry x="355" y="1610" width="80" height="80" as="geometry" />
        </mxCell>
        <mxCell id="yGFI4p-_wglcrPLrTtuq-36" value="um professor leciona para varias turmas" style="text;html=1;align=center;verticalAlign=middle;resizable=0;points=[];autosize=1;strokeColor=none;fillColor=none;" vertex="1" parent="1">
          <mxGeometry x="265" y="1570" width="240" height="30" as="geometry" />
        </mxCell>
        <mxCell id="yGFI4p-_wglcrPLrTtuq-37" value="" style="edgeStyle=none;orthogonalLoop=1;jettySize=auto;html=1;rounded=0;exitX=0.125;exitY=1;exitDx=0;exitDy=0;exitPerimeter=0;" edge="1" parent="1" source="yGFI4p-_wglcrPLrTtuq-36">
          <mxGeometry width="100" relative="1" as="geometry">
            <mxPoint x="335" y="1600" as="sourcePoint" />
            <mxPoint x="435" y="1600" as="targetPoint" />
            <Array as="points" />
          </mxGeometry>
        </mxCell>
        <mxCell id="yGFI4p-_wglcrPLrTtuq-38" value="cada turma tem um professor responsavel" style="text;html=1;align=center;verticalAlign=middle;resizable=0;points=[];autosize=1;strokeColor=none;fillColor=none;" vertex="1" parent="1">
          <mxGeometry x="260" y="1710" width="250" height="30" as="geometry" />
        </mxCell>
        <mxCell id="yGFI4p-_wglcrPLrTtuq-39" value="" style="edgeStyle=none;orthogonalLoop=1;jettySize=auto;html=1;rounded=0;" edge="1" parent="1">
          <mxGeometry width="100" relative="1" as="geometry">
            <mxPoint x="435" y="1700" as="sourcePoint" />
            <mxPoint x="321" y="1700" as="targetPoint" />
            <Array as="points" />
          </mxGeometry>
        </mxCell>
        <mxCell id="yGFI4p-_wglcrPLrTtuq-40" value="1" style="text;html=1;align=center;verticalAlign=middle;resizable=0;points=[];autosize=1;strokeColor=none;fillColor=none;" vertex="1" parent="1">
          <mxGeometry x="260" y="1618" width="30" height="30" as="geometry" />
        </mxCell>
        <mxCell id="yGFI4p-_wglcrPLrTtuq-41" value="N" style="text;html=1;align=center;verticalAlign=middle;resizable=0;points=[];autosize=1;strokeColor=none;fillColor=none;" vertex="1" parent="1">
          <mxGeometry x="510" y="1618" width="30" height="30" as="geometry" />
        </mxCell>
        <mxCell id="yGFI4p-_wglcrPLrTtuq-42" value="disciplina" style="rounded=0;whiteSpace=wrap;html=1;" vertex="1" parent="1">
          <mxGeometry x="555" y="1960" width="120" height="60" as="geometry" />
        </mxCell>
        <mxCell id="yGFI4p-_wglcrPLrTtuq-43" style="edgeStyle=orthogonalEdgeStyle;rounded=0;orthogonalLoop=1;jettySize=auto;html=1;exitX=1;exitY=0.5;exitDx=0;exitDy=0;entryX=0;entryY=0.5;entryDx=0;entryDy=0;endArrow=none;endFill=0;" edge="1" parent="1" source="yGFI4p-_wglcrPLrTtuq-44" target="yGFI4p-_wglcrPLrTtuq-42">
          <mxGeometry relative="1" as="geometry">
            <Array as="points">
              <mxPoint x="405" y="1990" />
              <mxPoint x="405" y="1990" />
            </Array>
          </mxGeometry>
        </mxCell>
        <mxCell id="yGFI4p-_wglcrPLrTtuq-44" value="aluno" style="rounded=0;whiteSpace=wrap;html=1;" vertex="1" parent="1">
          <mxGeometry x="125" y="1960" width="120" height="60" as="geometry" />
        </mxCell>
        <mxCell id="yGFI4p-_wglcrPLrTtuq-45" value="matricula" style="rhombus;whiteSpace=wrap;html=1;" vertex="1" parent="1">
          <mxGeometry x="355" y="1950" width="80" height="80" as="geometry" />
        </mxCell>
        <mxCell id="yGFI4p-_wglcrPLrTtuq-46" value="um aluno se matricula em varios disciplinas" style="text;html=1;align=center;verticalAlign=middle;resizable=0;points=[];autosize=1;strokeColor=none;fillColor=none;" vertex="1" parent="1">
          <mxGeometry x="260" y="1910" width="250" height="30" as="geometry" />
        </mxCell>
        <mxCell id="yGFI4p-_wglcrPLrTtuq-47" value="" style="edgeStyle=none;orthogonalLoop=1;jettySize=auto;html=1;rounded=0;exitX=0.125;exitY=1;exitDx=0;exitDy=0;exitPerimeter=0;" edge="1" parent="1">
          <mxGeometry width="100" relative="1" as="geometry">
            <mxPoint x="302.13" y="1940" as="sourcePoint" />
            <mxPoint x="445.88" y="1940" as="targetPoint" />
            <Array as="points">
              <mxPoint x="430.88" y="1940" />
            </Array>
          </mxGeometry>
        </mxCell>
        <mxCell id="yGFI4p-_wglcrPLrTtuq-48" value="uma discipla pode ter varios alunos" style="text;html=1;align=center;verticalAlign=middle;resizable=0;points=[];autosize=1;strokeColor=none;fillColor=none;" vertex="1" parent="1">
          <mxGeometry x="280" y="2050" width="210" height="30" as="geometry" />
        </mxCell>
        <mxCell id="yGFI4p-_wglcrPLrTtuq-49" value="" style="edgeStyle=none;orthogonalLoop=1;jettySize=auto;html=1;rounded=0;" edge="1" parent="1">
          <mxGeometry width="100" relative="1" as="geometry">
            <mxPoint x="440" y="2040" as="sourcePoint" />
            <mxPoint x="321" y="2040" as="targetPoint" />
            <Array as="points" />
          </mxGeometry>
        </mxCell>
        <mxCell id="yGFI4p-_wglcrPLrTtuq-50" value="1" style="text;html=1;align=center;verticalAlign=middle;resizable=0;points=[];autosize=1;strokeColor=none;fillColor=none;" vertex="1" parent="1">
          <mxGeometry x="260" y="1958" width="30" height="30" as="geometry" />
        </mxCell>
        <mxCell id="yGFI4p-_wglcrPLrTtuq-51" value="N" style="text;html=1;align=center;verticalAlign=middle;resizable=0;points=[];autosize=1;strokeColor=none;fillColor=none;" vertex="1" parent="1">
          <mxGeometry x="510" y="1958" width="30" height="30" as="geometry" />
        </mxCell>
        <mxCell id="yGFI4p-_wglcrPLrTtuq-52" value="&lt;span style=&quot;font-size: 24px;&quot;&gt;N : N - muitos pra muitos&lt;/span&gt;" style="text;html=1;align=center;verticalAlign=middle;resizable=0;points=[];autosize=1;strokeColor=default;fillColor=default;" vertex="1" parent="1">
          <mxGeometry x="-95" y="1870" width="290" height="40" as="geometry" />
        </mxCell>
      </root>
    </mxGraphModel>
  </diagram>
</mxfile>
